<?xml version="1.0" standalone="no"?>
<!DOCTYPE svg PUBLIC "-//W3C//DTD SVG 20010904//EN"
 "http://www.w3.org/TR/2001/REC-SVG-20010904/DTD/svg10.dtd">
<svg version="1.0" xmlns="http://www.w3.org/2000/svg"
 width="312.000000pt" height="309.000000pt" viewBox="0 0 312.000000 309.000000"
 preserveAspectRatio="xMidYMid meet">

<g transform="translate(0.000000,309.000000) scale(0.100000,-0.100000)"
fill="#000000" stroke="none">
<path d="M2241 3074 c0 -11 3 -14 6 -6 3 7 2 16 -1 19 -3 4 -6 -2 -5 -13z"/>
<path d="M2335 3080 c-3 -5 -1 -10 4 -10 6 0 11 5 11 10 0 6 -2 10 -4 10 -3 0
-8 -4 -11 -10z"/>
<path d="M2945 3078 c-11 -6 -22 -12 -23 -14 -7 -5 68 -74 80 -74 8 0 20 8 29
18 8 9 26 25 39 34 20 14 21 16 5 11 -11 -4 -24 -11 -28 -17 -5 -7 -7 -3 -5 9
2 11 14 22 28 25 23 6 23 7 5 12 -36 10 -109 8 -130 -4z"/>
<path d="M1535 3040 c-4 -6 -3 -16 3 -22 6 -6 12 -6 17 2 4 6 3 16 -3 22 -6 6
-12 6 -17 -2z"/>
<path d="M2170 3024 c0 -17 22 -14 28 4 2 7 -3 12 -12 12 -9 0 -16 -7 -16 -16z"/>
<path d="M3098 3023 c7 -3 16 -2 19 1 4 3 -2 6 -13 5 -11 0 -14 -3 -6 -6z"/>
<path d="M1656 2983 c-11 -11 -6 -23 9 -23 8 0 15 4 15 9 0 13 -16 22 -24 14z"/>
<path d="M2784 2959 c-3 -6 -1 -16 5 -22 8 -8 11 -5 11 11 0 24 -5 28 -16 11z"/>
<path d="M2180 2875 c0 -9 5 -15 11 -13 6 2 11 8 11 13 0 5 -5 11 -11 13 -6 2
-11 -4 -11 -13z"/>
<path d="M3040 2870 c0 -5 5 -10 11 -10 5 0 7 5 4 10 -3 6 -8 10 -11 10 -2 0
-4 -4 -4 -10z"/>
<path d="M3069 2849 c-21 -21 -21 -22 -3 -32 11 -6 23 -16 27 -24 12 -19 27
-16 27 6 0 12 -9 23 -22 27 l-23 7 23 8 c12 5 22 13 22 19 0 17 -29 11 -51
-11z"/>
<path d="M2930 2846 c0 -2 7 -7 16 -10 8 -3 12 -2 9 4 -6 10 -25 14 -25 6z"/>
<path d="M2898 2833 c7 -3 16 -2 19 1 4 3 -2 6 -13 5 -11 0 -14 -3 -6 -6z"/>
<path d="M2913 2798 c-20 -19 -23 -20 -29 -5 -4 10 -17 17 -33 16 -24 0 -25
-1 -5 -9 23 -9 38 -36 25 -45 -5 -3 -11 2 -15 10 -3 8 -10 15 -16 15 -6 0 -8
-5 -5 -10 4 -7 -2 -9 -19 -4 -17 4 -31 1 -42 -11 -9 -9 -22 -14 -29 -11 -8 3
-16 -1 -18 -8 -6 -16 37 -38 58 -30 8 4 22 1 30 -6 9 -7 31 -9 62 -6 29 4 40
3 29 -2 -18 -8 -18 -9 -2 -15 28 -11 74 -8 78 5 3 7 15 13 29 13 13 1 34 7 46
13 12 7 31 12 42 12 28 0 29 40 2 47 -11 3 -22 11 -25 19 -8 21 -48 17 -71 -8
l-21 -23 20 -17 c20 -16 20 -17 -19 -15 -22 1 -45 9 -52 17 -10 12 -15 13 -32
2 -12 -7 -21 -10 -21 -6 0 9 23 30 48 43 12 6 22 18 22 26 0 21 -12 19 -37 -7z"/>
<path d="M2410 2796 c0 -9 7 -16 16 -16 9 0 14 5 12 12 -6 18 -28 21 -28 4z"/>
<path d="M2963 2797 c5 -15 37 -22 37 -9 0 5 -9 12 -21 15 -13 3 -19 1 -16 -6z"/>
<path d="M1362 2789 c2 -6 8 -10 13 -10 5 0 11 4 13 10 2 6 -4 11 -13 11 -9 0
-15 -5 -13 -11z"/>
<path d="M2778 2793 c7 -3 16 -2 19 1 4 3 -2 6 -13 5 -11 0 -14 -3 -6 -6z"/>
<path d="M2696 2713 c-6 -14 -5 -15 5 -6 7 7 10 15 7 18 -3 3 -9 -2 -12 -12z"/>
<path d="M2600 2706 c0 -9 -12 -13 -37 -12 -23 1 -38 -4 -38 -11 0 -6 -3 -14
-6 -18 -8 -7 0 -44 10 -46 3 -1 22 -3 41 -5 19 -2 39 -9 45 -16 7 -8 5 -9 -7
-5 -12 4 -18 1 -18 -10 0 -13 -2 -14 -17 -2 -15 13 -15 12 -5 -8 15 -28 15
-40 0 -25 -7 7 -21 12 -31 12 -13 0 -17 5 -13 16 5 13 0 15 -36 9 -24 -4 -48
-11 -54 -16 -6 -5 -13 -6 -17 -3 -3 3 -14 1 -24 -6 -16 -10 -16 -11 0 -6 10 3
17 0 17 -8 0 -8 -8 -13 -17 -12 -10 0 -22 -9 -28 -21 -6 -14 -22 -25 -42 -29
-17 -3 -34 -12 -37 -20 -4 -11 6 -14 43 -14 27 0 56 -3 65 -6 37 -14 10 -21
-91 -23 -59 -1 -110 -6 -113 -12 -4 -5 -5 -22 -2 -38 3 -21 13 -32 41 -44 21
-10 42 -17 48 -17 6 0 16 -7 24 -16 11 -14 13 -14 21 0 5 9 16 16 24 16 9 0
12 -5 8 -12 -4 -7 5 -2 18 12 17 17 21 27 14 32 -19 13 3 9 41 -7 20 -8 38
-13 41 -10 10 10 -26 38 -50 40 -13 1 -22 5 -20 8 1 4 2 12 2 17 0 13 36 13
60 0 10 -5 21 -22 24 -37 4 -16 10 -37 13 -47 5 -17 1 -18 -26 -13 -20 4 -30
3 -26 -3 3 -6 13 -10 21 -10 8 0 14 -5 14 -10 0 -6 -10 -10 -22 -9 -13 1 -32
1 -43 1 -18 -2 -18 -3 3 -18 12 -8 22 -19 22 -25 0 -13 -54 -11 -68 3 -9 9
-12 9 -12 0 0 -6 -10 -17 -22 -23 -20 -11 -22 -10 -10 3 10 12 10 17 1 20 -7
2 5 13 25 24 21 10 46 23 57 29 25 13 24 25 -1 25 -11 0 -20 -4 -20 -10 0 -5
-15 -10 -34 -10 -19 0 -37 -4 -41 -10 -4 -6 -15 -6 -30 0 -16 6 -25 6 -25 0 0
-6 4 -10 10 -10 10 0 40 -52 40 -70 0 -16 -26 -12 -41 7 -11 13 -11 17 -1 20
6 3 10 9 6 14 -3 5 -14 4 -27 -3 -20 -10 -21 -10 -8 6 13 16 12 17 -12 11 -17
-5 -27 -3 -27 4 0 6 9 11 21 11 11 0 17 4 14 10 -4 6 -16 8 -28 5 -12 -2 -16
-2 -9 1 21 10 4 22 -23 16 -16 -3 -25 -11 -25 -23 0 -10 -4 -21 -10 -24 -5 -3
-10 -2 -10 4 0 5 -7 11 -15 13 -11 2 -7 11 16 36 22 23 26 32 14 32 -9 0 -15
6 -14 13 1 6 -1 20 -6 30 -6 15 -10 16 -16 5 -6 -10 -12 -9 -24 7 -14 17 -16
17 -11 3 6 -21 2 -22 -24 -8 -15 8 -20 4 -30 -20 -7 -16 -20 -32 -31 -35 -11
-4 -16 -12 -12 -21 3 -8 -1 -14 -10 -14 -17 0 -29 24 -22 43 5 12 -8 15 -82
20 -21 1 -44 9 -50 17 -9 11 -15 12 -20 3 -11 -15 -103 -4 -110 13 -3 8 -10
14 -15 14 -7 0 -6 -5 1 -14 9 -11 8 -15 -5 -20 -22 -8 -26 -8 -19 4 3 6 0 10
-8 10 -8 0 -20 7 -27 15 -7 8 -20 15 -29 15 -14 -1 -14 -2 2 -11 9 -5 17 -15
17 -21 0 -7 -5 -6 -15 2 -8 7 -42 12 -75 13 -34 0 -63 4 -66 9 -8 13 -42 10
-47 -4 -5 -18 -88 -17 -107 1 -10 9 -15 10 -18 2 -2 -6 -12 -11 -23 -11 -28 0
-23 -17 11 -35 17 -9 30 -20 30 -25 0 -16 -10 -12 -50 20 -21 17 -50 30 -64
30 -16 0 -26 5 -25 13 4 30 -2 47 -16 47 -8 0 -15 -5 -15 -11 0 -6 -6 -9 -14
-6 -8 3 -27 2 -43 -3 -27 -8 -27 -8 9 -9 31 -1 36 -4 31 -18 -5 -12 -2 -15 9
-10 25 9 29 -3 8 -25 -17 -18 -20 -19 -47 -4 -22 12 -24 15 -9 16 11 0 16 3
12 7 -9 10 -126 10 -126 1 0 -14 -27 -9 -40 7 -14 17 -60 20 -60 4 0 -6 8 -8
19 -4 11 3 22 1 26 -5 4 -6 -6 -10 -24 -10 -32 0 -44 -19 -13 -21 9 -1 -21 -8
-68 -15 -47 -8 -94 -12 -104 -9 -11 2 -25 -3 -32 -13 -13 -16 -13 -16 -14 1 0
22 -6 22 -37 -3 -14 -11 -32 -20 -39 -20 -8 0 -14 -4 -14 -9 0 -5 -10 -7 -21
-4 -19 5 -21 3 -14 -26 5 -25 4 -30 -8 -25 -8 3 -18 1 -22 -5 -3 -6 -16 -11
-27 -11 -12 0 -30 -7 -40 -17 -17 -15 -18 -15 -18 0 0 10 -8 17 -20 17 -17 0
-20 -7 -20 -41 0 -32 -3 -40 -14 -36 -10 4 -13 1 -9 -9 4 -10 0 -15 -8 -14 -8
1 -32 2 -54 0 -31 -1 -36 -3 -20 -10 18 -7 19 -8 3 -15 -10 -4 -18 -16 -18
-26 0 -14 -7 -19 -29 -19 -16 0 -37 -7 -45 -16 -18 -17 -47 -12 -71 12 -8 9
-15 11 -15 5 0 -6 -18 -11 -40 -11 -36 0 -40 -3 -40 -24 0 -13 6 -27 13 -29
10 -4 10 -6 0 -6 -10 -1 -13 -141 -13 -667 l0 -667 33 8 c58 13 62 12 62 -17
-1 -27 0 -27 67 -27 37 0 75 -4 84 -9 14 -8 11 -11 -15 -20 -25 -9 -31 -8 -31
4 0 7 -7 14 -15 14 -11 0 -13 -9 -9 -40 5 -38 4 -40 -20 -40 -14 0 -26 5 -26
10 0 6 -16 10 -35 10 -19 0 -35 -4 -35 -10 0 -5 7 -10 15 -10 8 0 15 -4 15
-10 0 -5 7 -10 15 -10 8 0 15 -4 15 -9 0 -4 -23 -11 -50 -14 -64 -8 -75 -14
-58 -35 9 -11 10 -14 1 -8 -10 5 -13 -41 -13 -209 l0 -215 453 3 c248 1 463 6
477 11 19 6 21 5 10 -3 -11 -8 32 -11 158 -11 141 0 176 3 188 15 20 19 53 19
60 0 5 -13 114 -15 890 -15 l884 0 0 336 0 336 -24 -6 c-37 -9 -43 13 -7 27
27 10 31 16 31 48 l0 36 -60 7 c-45 5 -60 11 -60 23 0 16 33 15 98 -3 21 -6
22 -4 22 60 0 72 1 71 -72 68 -16 0 -28 3 -28 8 0 14 31 21 66 14 l34 -6 0 53
c0 50 -2 55 -29 67 -29 13 -135 34 -178 36 -15 1 -26 10 -32 29 -10 27 -54 52
-73 41 -6 -4 -8 2 -6 12 2 14 14 20 45 22 36 3 44 -1 59 -22 9 -15 25 -26 35
-26 26 0 24 17 -3 31 l-22 12 23 18 c13 11 31 19 40 18 13 0 12 -2 -4 -10 -18
-8 -17 -9 6 -6 16 2 26 -1 26 -10 0 -16 -29 -17 -44 -2 -8 8 -13 8 -17 0 -4
-6 0 -11 9 -11 9 0 14 -4 11 -9 -3 -5 1 -14 9 -21 13 -11 14 -10 9 4 -3 9 -2
16 4 16 15 0 22 -26 9 -39 -15 -15 6 -14 22 2 11 10 13 9 9 -3 -3 -10 10 -25
38 -42 24 -16 46 -28 49 -28 3 0 5 45 5 100 0 80 -4 106 -19 134 -11 19 -17
37 -14 40 4 3 2 6 -3 6 -6 0 -19 7 -30 16 -19 15 -18 15 4 11 12 -3 20 -1 16
4 -3 5 2 9 10 9 10 0 13 -6 10 -15 -4 -10 0 -15 12 -15 16 0 17 2 4 10 -13 9
-13 10 0 10 10 1 7 5 -8 13 -26 15 -58 57 -43 57 6 0 11 -3 11 -7 0 -5 11 -16
24 -25 l24 -17 1 124 2 125 -26 0 c-28 0 -34 16 -7 23 12 4 11 5 -6 6 -12 0
-25 -6 -28 -14 -8 -19 -24 -20 -24 -1 0 20 39 46 67 46 l23 0 -2 253 c-3 217
-5 252 -18 251 -8 -1 -31 -4 -50 -7 l-35 -7 30 15 c17 8 40 14 52 15 21 0 21
4 22 130 l2 130 -27 0 c-16 0 -24 5 -21 13 2 6 14 12 26 11 20 -1 21 4 21 82
0 80 -1 82 -26 87 -17 3 -34 -3 -54 -19 -15 -13 -36 -24 -46 -24 -11 0 -26 -5
-34 -11 -11 -7 4 -8 51 -3 54 5 69 3 82 -11 17 -17 23 -45 10 -45 -14 0 -35
17 -34 26 2 19 -137 3 -150 -17 -4 -7 -14 -9 -25 -4 -17 6 -16 8 8 17 24 8 26
12 16 34 -11 23 -28 33 -28 17 0 -5 -23 -6 -51 -4 -39 2 -58 9 -74 27 -24 26
-48 32 -39 11 3 -9 -7 -14 -36 -15 -30 -2 -40 1 -40 12 0 10 6 13 15 10 9 -4
15 0 15 10 0 12 -10 16 -40 16 -27 0 -40 -4 -40 -14z m230 -91 c7 -9 9 -19 5
-23 -4 -4 -10 -1 -12 6 -3 6 -11 12 -19 12 -8 0 -14 5 -14 10 0 15 26 12 40
-5z m-76 -10 c-8 -20 -46 -37 -57 -26 -15 15 -27 14 -27 -4 0 -8 -7 -15 -15
-15 -20 0 -19 5 5 32 14 16 31 23 59 23 23 1 37 -3 35 -10z m-127 -70 c0 -9
-9 -15 -21 -15 -21 1 -21 1 -2 15 24 18 23 18 23 0z m225 -3 c10 -10 5 -12
-26 -8 -50 6 -65 21 -21 21 19 0 40 -6 47 -13z m66 -61 c3 -8 -3 -8 -23 -1
-15 6 -31 8 -36 4 -5 -3 -9 -1 -9 5 0 23 60 17 68 -8z m-423 9 c4 -6 -7 -10
-24 -10 -17 0 -31 5 -31 10 0 6 11 10 24 10 14 0 28 -4 31 -10z m159 -16 c26
-10 18 -20 -16 -22 -18 -1 -46 -5 -63 -8 -41 -8 -21 11 25 24 19 6 36 11 37
11 1 1 8 -2 17 -5z m427 -64 c10 -6 19 -21 19 -33 0 -12 -4 -17 -8 -12 -4 6
-18 16 -31 24 -21 12 -26 11 -36 -3 -16 -22 -20 -20 -21 9 -2 21 2 25 28 25
16 0 38 -5 49 -10z m-1556 -30 c-3 -5 -21 -9 -38 -9 l-32 2 35 7 c19 4 36 8
38 9 2 0 0 -3 -3 -9z m216 -47 c10 3 23 -1 29 -8 8 -10 4 -14 -16 -19 -14 -4
-27 -6 -29 -4 -1 2 -6 11 -12 21 -9 18 -11 18 -26 2 -19 -18 -22 -8 -11 32 l6
23 21 -26 c12 -16 26 -24 38 -21z m769 43 c0 -3 -4 -8 -10 -11 -5 -3 -10 -1
-10 4 0 6 5 11 10 11 6 0 10 -2 10 -4z m-1464 -34 c-22 -5 -30 3 -21 18 5 8
11 7 22 -2 15 -12 14 -13 -1 -16z m711 22 c-3 -3 -12 -4 -19 -1 -8 3 -5 6 6 6
11 1 17 -2 13 -5z m942 -7 c9 -11 2 -14 -35 -15 -56 0 -46 15 17 27 4 0 12 -5
18 -12z m-899 -7 c0 -5 -2 -10 -4 -10 -3 0 -8 5 -11 10 -3 6 -1 10 4 10 6 0
11 -4 11 -10z m1133 1 c4 -1 7 -5 7 -9 0 -10 -87 -15 -101 -6 -28 17 18 24 94
15z m-1293 -5 c0 -3 -4 -8 -10 -11 -5 -3 -10 -1 -10 4 0 6 5 11 10 11 6 0 10
-2 10 -4z m-553 -22 c-3 -3 -12 -4 -19 -1 -8 3 -5 6 6 6 11 1 17 -2 13 -5z
m-312 -14 c3 -5 -1 -10 -9 -10 -9 0 -16 5 -16 10 0 6 4 10 9 10 6 0 13 -4 16
-10z m1059 -12 c-1 -10 5 -14 17 -11 11 3 19 0 19 -6 0 -6 -10 -9 -22 -7 -13
3 -27 5 -31 5 -5 1 -5 6 -2 11 3 6 1 10 -4 10 -6 0 -11 5 -11 11 0 6 8 9 18 7
9 -2 16 -11 16 -20z m899 4 c10 -10 14 -22 10 -25 -12 -13 -44 -7 -49 8 -9 22
-30 18 -48 -7 -9 -12 -18 -19 -21 -16 -10 10 48 58 70 58 12 0 29 -8 38 -18z
m-1743 -6 c0 -3 -4 -8 -10 -11 -5 -3 -10 -1 -10 4 0 6 5 11 10 11 6 0 10 -2
10 -4z m753 -13 c-7 -2 -19 -2 -25 0 -7 3 -2 5 12 5 14 0 19 -2 13 -5z m777
-3 c0 -5 -4 -10 -9 -10 -6 0 -13 5 -16 10 -3 6 1 10 9 10 9 0 16 -4 16 -10z
m-426 -25 c6 -11 19 -26 28 -33 12 -9 16 -21 12 -41 -5 -24 -2 -29 20 -35 14
-3 26 -11 26 -17 0 -7 -7 -8 -17 -4 -10 4 -25 7 -33 7 -9 0 -20 9 -25 21 -6
11 -15 22 -22 24 -9 3 -9 -3 0 -28 8 -21 23 -37 45 -46 35 -15 44 -28 12 -20
-11 3 -20 0 -20 -5 0 -7 -5 -6 -13 1 -8 6 -17 7 -21 3 -5 -4 -7 0 -6 8 6 44 2
48 -55 46 -30 -1 -55 2 -55 5 0 4 12 17 28 29 18 14 23 23 15 26 -18 8 -16 24
2 24 8 0 15 -7 15 -15 0 -17 16 -20 25 -5 3 6 1 10 -5 10 -12 0 -9 37 4 58 10
17 27 11 40 -13z m-448 -10 c3 -14 11 -25 16 -25 7 0 7 -4 1 -12 -13 -16 -26
-68 -17 -68 4 0 16 10 27 23 14 15 18 17 14 5 -3 -9 -3 -18 1 -20 4 -2 18 -17
30 -34 l22 -32 -25 -4 c-20 -4 -23 -3 -14 8 11 14 5 34 -11 34 -5 0 -7 -7 -4
-15 5 -11 2 -13 -10 -9 -9 3 -16 11 -17 18 -1 6 -4 0 -8 -14 -6 -19 -3 -27 11
-32 10 -4 18 -13 18 -20 0 -9 -3 -9 -12 0 -15 15 -37 -13 -38 -50 0 -16 -4
-28 -10 -28 -5 0 -10 -7 -10 -15 0 -12 -28 -35 -43 -35 -6 0 1 61 12 105 10
41 8 107 -4 137 -4 9 -4 23 0 30 4 7 -3 2 -14 -12 -17 -21 -21 -22 -21 -7 -1
70 91 132 106 72z m180 17 c16 -11 14 -71 -3 -65 -7 3 -13 0 -13 -7 0 -9 -3
-10 -14 -1 -7 6 -20 9 -29 5 -8 -3 -18 -1 -22 5 -3 6 -2 11 3 11 5 0 12 14 16
30 4 23 11 30 28 30 13 0 28 -4 34 -8z m374 -37 c0 -10 -9 -14 -25 -13 -25 2
-31 9 -18 21 12 13 43 7 43 -8z m584 -4 c14 -5 16 -10 7 -15 -6 -4 -18 -3 -25
3 -7 6 -22 9 -32 5 -16 -5 -16 -4 -4 5 17 12 27 13 54 2z m-2174 -22 c0 -4 -7
-6 -15 -3 -8 4 -15 10 -15 15 0 4 7 6 15 3 8 -4 15 -10 15 -15z m2265 11 c4
-6 -6 -10 -22 -10 -22 0 -25 2 -13 10 19 12 27 12 35 0z m-2308 -15 c0 -8 -4
-12 -9 -9 -5 3 -6 10 -3 15 9 13 12 11 12 -6z m1353 -25 c0 -5 -10 -11 -22
-12 -13 -1 -32 -2 -43 -3 -11 -1 -29 -3 -39 -4 -16 -1 -17 -4 -8 -13 7 -7 12
-20 12 -29 0 -16 -3 -17 -34 -4 -18 8 -37 11 -41 7 -5 -4 -5 1 -2 11 4 9 2 17
-4 17 -6 0 -7 5 -4 10 5 8 11 7 21 -1 12 -10 14 -10 12 1 -2 7 7 13 19 15 13
1 26 5 30 8 10 11 103 8 103 -3z m681 -10 c5 0 9 -3 9 -7 0 -5 -16 -8 -35 -9
-28 0 -32 2 -23 13 6 8 18 11 25 8 8 -3 19 -5 24 -5z m-1051 -10 c12 -8 11
-10 -7 -10 -13 0 -23 5 -23 10 0 13 11 13 30 0z m879 -7 c39 -23 39 -33 1 -33
-17 0 -30 5 -30 13 0 8 -4 7 -10 -3 -9 -13 -14 -7 -11 13 0 4 -5 7 -11 7 -9 0
-8 4 2 10 20 13 24 13 59 -7z m-488 -13 c12 0 19 -7 19 -20 0 -16 6 -20 28
-18 15 2 29 -1 32 -6 3 -4 -12 -10 -34 -12 -21 -2 -47 -11 -57 -20 -11 -9 -19
-12 -19 -6 0 6 3 12 8 15 4 2 1 2 -7 0 -7 -2 -21 2 -29 9 -12 10 -14 10 -8 1
4 -8 2 -13 -7 -13 -25 0 -27 13 -4 32 12 11 23 24 23 29 1 5 2 12 3 15 0 3 8
3 17 0 9 -3 24 -6 35 -6z m314 -10 c3 -6 -4 -10 -17 -10 -13 0 -29 -5 -36 -12
-7 -7 -12 -8 -12 -2 0 27 51 46 65 24z m445 -28 c0 -4 -9 -8 -20 -8 -11 0 -20
4 -20 8 0 4 9 8 20 8 11 0 20 -4 20 -8z m-450 -32 c0 -5 -10 -10 -22 -10 -19
0 -20 2 -8 10 19 13 30 13 30 0z m470 0 c0 -5 -9 -10 -21 -10 -11 0 -17 5 -14
10 3 6 13 10 21 10 8 0 14 -4 14 -10z m-1362 -9 c11 -7 11 -9 -1 -14 -9 -3
-18 1 -21 9 -6 16 2 18 22 5z m47 -11 c7 0 16 6 18 13 3 7 6 5 6 -5 1 -13 -7
-18 -24 -18 -17 0 -25 5 -24 18 0 10 3 12 6 5 2 -7 11 -13 18 -13z m420 -9 c5
-3 -1 -8 -15 -12 l-25 -7 23 -7 c12 -4 25 -18 28 -32 8 -31 0 -38 -20 -18 -9
10 -23 14 -31 11 -10 -4 -15 1 -15 14 0 16 -5 19 -30 14 -19 -4 -30 -2 -30 5
0 6 9 11 21 11 11 0 18 4 15 9 -11 17 53 26 79 12z m343 -9 c2 -8 -3 -10 -14
-5 -11 4 -15 2 -11 -4 4 -6 -3 -8 -18 -5 -31 6 -32 19 -2 25 30 6 40 3 45 -11z
m577 8 c3 -5 -1 -10 -9 -10 -9 0 -16 5 -16 10 0 6 4 10 9 10 6 0 13 -4 16 -10z
m-835 -9 c0 -12 -39 -25 -47 -17 -4 3 1 6 10 6 10 0 17 5 17 10 0 6 5 10 10
10 6 0 10 -4 10 -9z m-483 -17 c26 -7 40 -41 24 -57 -13 -13 -43 -19 -35 -6 3
5 13 9 22 9 13 0 14 2 3 9 -23 15 -49 2 -45 -22 4 -21 4 -21 -5 1 -11 25 -31
28 -50 10 -10 -11 -11 -9 -5 7 7 17 6 18 -8 5 -9 -8 -14 -19 -11 -24 3 -4 -1
-12 -8 -17 -20 -12 -37 -11 -19 2 11 8 12 12 3 16 -22 8 -15 22 25 47 37 25
69 31 109 20z m-1332 -13 c3 -5 1 -12 -5 -16 -5 -3 -10 1 -10 9 0 18 6 21 15
7z m-32 -8 c-7 -2 -19 -2 -25 0 -7 3 -2 5 12 5 14 0 19 -2 13 -5z m1755 -45
c33 -33 -2 -50 -53 -26 -22 10 -28 9 -36 -3 -5 -9 -9 -10 -9 -2 0 16 40 43 65
43 12 0 26 -5 33 -12z m472 2 c0 -5 -7 -10 -16 -10 -8 0 -12 5 -9 10 3 6 10
10 16 10 5 0 9 -4 9 -10z m136 -4 c21 -21 18 -24 -26 -22 -37 1 -50 13 -33 29
11 12 44 8 59 -7z m-1101 -56 c-10 -22 -24 -40 -32 -40 -8 0 -12 4 -9 9 4 5 0
11 -6 14 -9 3 -6 8 7 13 26 10 45 29 45 45 0 7 3 9 7 6 3 -4 -2 -25 -12 -47z
m36 13 c-7 -26 -31 -45 -31 -24 0 6 5 11 10 11 6 0 9 3 9 8 -4 21 2 42 10 38
5 -4 6 -18 2 -33z m99 22 c0 -8 -4 -15 -10 -15 -5 0 -7 7 -4 15 4 8 8 15 10
15 2 0 4 -7 4 -15z m-870 -5 c12 -8 10 -10 -8 -10 -13 0 -20 -4 -17 -10 4 -7
-8 -8 -37 -4 -50 8 -62 14 -27 14 19 0 21 2 9 10 -11 7 -4 10 25 10 22 0 47
-5 55 -10z m920 -20 c0 -5 -9 -6 -20 -3 -11 3 -17 9 -15 14 7 10 35 1 35 -11z
m-1453 4 c-3 -3 -12 -4 -19 -1 -8 3 -5 6 6 6 11 1 17 -2 13 -5z m1771 -13 c6
-1 12 -5 12 -11 0 -14 -38 -12 -85 5 l-40 14 50 -4 c28 -2 56 -4 63 -4z m-188
-10 c0 -6 -9 -9 -19 -8 -11 0 -17 5 -15 9 7 11 34 10 34 -1z m537 3 c-3 -3
-12 -4 -19 -1 -8 3 -5 6 6 6 11 1 17 -2 13 -5z m-93 -30 c4 -9 4 -19 1 -22 -3
-3 -5 0 -5 6 0 7 -7 12 -16 12 -8 0 -12 5 -9 10 9 15 22 12 29 -6z m-448 -15
c3 -6 15 -9 25 -6 25 7 25 -24 2 -60 -17 -26 -17 -27 0 -20 9 3 17 2 17 -3 0
-6 -14 -10 -32 -10 -30 0 -31 1 -13 14 16 11 17 17 7 29 -7 8 -25 18 -39 22
-21 5 -24 8 -12 16 10 6 11 9 1 9 -7 0 -10 5 -7 10 8 13 42 13 51 -1z m-86
-14 c9 -10 9 -15 1 -15 -6 0 -11 4 -11 9 0 5 -8 12 -17 14 -15 4 -15 5 -2 6 9
0 22 -6 29 -14z m230 6 c0 -5 -9 -11 -20 -14 -22 -6 -28 8 -7 16 19 8 27 8 27
-2z m220 -15 c0 -3 -4 -8 -10 -11 -5 -3 -10 -1 -10 4 0 6 5 11 10 11 6 0 10
-2 10 -4z m30 -15 c0 -6 -4 -13 -10 -16 -5 -3 -10 1 -10 9 0 9 5 16 10 16 6 0
10 -4 10 -9z m106 -16 c19 -14 19 -14 -3 -15 -30 0 -54 10 -47 21 8 13 28 11
50 -6z m-1446 -5 c0 -5 -7 -10 -15 -10 -8 0 -15 5 -15 10 0 6 7 10 15 10 8 0
15 -4 15 -10z m-55 -29 c-3 -6 -11 -11 -16 -11 -5 0 -4 6 3 14 14 16 24 13 13
-3z m-35 -6 c0 -12 -42 -45 -50 -40 -17 10 -11 25 10 25 11 0 20 5 20 10 0 6
5 10 10 10 6 0 10 -2 10 -5z m760 -15 c0 -5 -9 -10 -20 -10 -11 0 -20 5 -20
10 0 6 9 10 20 10 11 0 20 -4 20 -10z m475 -10 c3 -6 -1 -7 -9 -4 -18 7 -21
14 -7 14 6 0 13 -4 16 -10z m-175 -9 c0 -10 -42 -23 -49 -15 -7 6 20 24 37 24
6 0 12 -4 12 -9z m230 -26 c7 -9 9 -19 5 -23 -4 -4 -10 -1 -12 6 -3 6 -11 12
-19 12 -8 0 -14 5 -14 10 0 15 26 12 40 -5z m130 11 c0 -2 -7 -7 -16 -10 -8
-3 -12 -2 -9 4 6 10 25 14 25 6z m-1430 -26 c0 -5 -5 -10 -11 -10 -5 0 -7 5
-4 10 3 6 8 10 11 10 2 0 4 -4 4 -10z m1268 -10 c12 -12 22 -25 22 -30 0 -6 5
-10 11 -10 30 0 112 -146 90 -160 -9 -5 -8 -10 4 -20 20 -17 19 -80 -3 -106
-19 -25 -61 -49 -63 -37 -6 35 -9 68 -13 133 l-4 75 -27 -3 c-15 -2 -30 0 -34
5 -14 19 -50 44 -72 49 -69 17 -87 16 -94 -5 -3 -12 -12 -18 -20 -14 -9 3 -18
-4 -24 -20 -11 -29 -31 -45 -31 -25 0 19 40 91 59 106 48 38 129 82 152 82 14
0 35 -9 47 -20z m-1264 -21 c-3 -5 -13 -9 -23 -9 -9 0 -22 -5 -28 -11 -6 -6
-19 -9 -29 -7 -16 3 -14 7 10 20 32 17 79 21 70 7z m-146 -21 c22 -22 12 -34
-33 -36 -25 -1 -59 -9 -75 -17 -41 -21 -38 -4 5 34 37 32 81 41 103 19z m2408
-37 c18 -11 39 -33 47 -50 13 -26 13 -32 1 -42 -12 -9 -19 -8 -37 8 -12 11
-29 21 -37 22 -8 0 -30 4 -48 7 -27 5 -31 10 -26 26 5 17 3 19 -16 13 -20 -6
-21 -5 -11 14 15 28 83 29 127 2z m-2308 -63 c4 -18 -16 -26 -77 -31 -20 -1
-36 3 -38 11 -3 6 1 12 7 12 6 0 18 7 27 16 21 20 77 15 81 -8z m1552 12 c-29
-6 -31 -8 -10 -9 14 -2 20 -5 13 -7 -7 -3 -9 -12 -6 -20 3 -9 -1 -14 -12 -14
-13 0 -16 -6 -11 -26 6 -23 5 -24 -16 -13 -16 9 -23 9 -26 0 -2 -6 -8 -11 -13
-11 -4 0 -6 7 -3 15 4 8 11 15 18 15 14 0 46 36 39 44 -3 3 -18 3 -32 -1 l-26
-6 25 21 c16 14 38 21 60 20 l35 -1 -35 -7z m605 -55 c22 -39 20 -42 -25 -51
-25 -6 -32 -4 -28 7 2 7 15 16 27 19 l23 5 -21 19 c-11 10 -27 16 -36 13 -9
-4 -15 -1 -15 8 0 10 10 15 28 15 23 0 33 -8 47 -35z m235 5 c0 -5 -4 -10 -10
-10 -5 0 -10 5 -10 10 0 6 5 10 10 10 6 0 10 -4 10 -10z m165 0 c3 -5 -1 -10
-10 -10 -9 0 -13 5 -10 10 3 6 8 10 10 10 2 0 7 -4 10 -10z m-717 -38 c2 -7
-2 -10 -12 -6 -9 3 -16 2 -16 -4 0 -5 -11 -7 -25 -4 -25 4 -31 13 -18 26 11
11 66 2 71 -12z m593 -2 l24 -20 -45 6 c-52 7 -60 12 -40 24 22 14 35 12 61
-10z m84 -19 c-6 -5 -25 10 -25 20 0 5 6 4 14 -3 8 -7 12 -15 11 -17z m-1865
6 c0 -8 11 -19 24 -27 22 -11 23 -14 9 -28 -14 -14 -18 -14 -42 -1 -14 8 -26
19 -26 24 0 6 -4 15 -8 22 -4 6 -1 14 5 16 24 10 38 7 38 -6z m1040 -39 c0
-10 -43 4 -57 18 -7 7 -13 15 -13 17 0 7 69 -27 70 -35z m-2020 11 c0 -5 -4
-9 -10 -9 -5 0 -10 7 -10 16 0 8 5 12 10 9 6 -3 10 -10 10 -16z m1890 11 c0
-5 -7 -10 -15 -10 -8 0 -15 5 -15 10 0 6 7 10 15 10 8 0 15 -4 15 -10z m54 -5
c3 -9 0 -15 -9 -15 -8 0 -15 7 -15 15 0 8 4 15 9 15 5 0 11 -7 15 -15z m717
-4 c13 -11 22 -22 19 -24 -8 -8 -70 21 -70 33 0 16 26 12 51 -9z m-1728 -25
c25 -19 21 -27 -8 -14 -14 6 -25 15 -25 20 0 12 12 9 33 -6z m-818 -6 c11 -5
17 -9 13 -9 -5 -1 -11 -1 -15 -2 -5 0 -14 -6 -22 -12 -16 -14 -70 -10 -90 6
-11 10 -9 13 10 18 34 10 80 9 104 -1z m569 -15 c-4 -8 -10 -15 -14 -15 -4 0
-10 7 -14 15 -4 10 1 15 14 15 13 0 18 -5 14 -15z m64 9 c12 -4 22 -11 22 -16
0 -14 -63 -5 -68 10 -4 13 10 15 46 6z m1349 -7 c4 -4 2 -12 -5 -19 -8 -8 -15
-8 -26 2 -9 7 -22 10 -29 7 -7 -3 -24 1 -37 8 -21 11 -18 12 33 10 31 -1 60
-5 64 -8z m289 -14 c-10 -10 -19 5 -10 18 6 11 8 11 12 0 2 -7 1 -15 -2 -18z
m457 1 c-3 -8 1 -14 9 -14 7 0 15 -11 16 -24 2 -27 -32 -46 -50 -28 -8 8 -4
10 13 7 21 -4 21 -3 -3 7 -16 7 -28 15 -28 20 0 4 -7 8 -15 8 -8 0 -15 6 -15
13 0 8 7 14 15 14 8 0 15 -4 15 -9 0 -4 7 -8 15 -8 12 0 13 4 6 19 -9 16 -8
18 8 14 12 -3 17 -11 14 -19z m-678 6 c-3 -5 -11 -10 -16 -10 -6 0 -7 5 -4 10
3 6 11 10 16 10 6 0 7 -4 4 -10z m-1388 -26 c-3 -3 -12 -4 -19 -1 -8 3 -5 6 6
6 11 1 17 -2 13 -5z m2012 -35 c12 -12 20 -23 17 -26 -5 -5 -66 34 -66 43 0
11 29 2 49 -17z m-1782 -5 c-3 -3 -12 -4 -19 -1 -8 3 -5 6 6 6 11 1 17 -2 13
-5z m1321 -14 c33 -15 42 -24 42 -45 0 -14 -2 -25 -4 -25 -3 0 -26 11 -52 25
-26 14 -53 25 -60 25 -17 0 -18 27 -1 33 21 9 31 7 75 -13z m92 10 c0 -5 -4
-10 -10 -10 -5 0 -10 5 -10 10 0 6 5 10 10 10 6 0 10 -4 10 -10z m-1045 -19
c-3 -6 3 -14 12 -20 16 -9 16 -10 -4 -11 -12 0 -25 5 -28 10 -4 6 -11 8 -16 5
-5 -4 -9 1 -9 9 0 10 9 16 26 16 14 0 23 -4 19 -9z m1505 -31 c0 -5 -4 -10
-10 -10 -5 0 -10 5 -10 10 0 6 5 10 10 10 6 0 10 -4 10 -10z m-1200 -10 c0 -5
-7 -10 -16 -10 -8 0 -12 5 -9 10 3 6 10 10 16 10 5 0 9 -4 9 -10z m-870 -20
c0 -5 -7 -10 -16 -10 -8 0 -12 5 -9 10 3 6 10 10 16 10 5 0 9 -4 9 -10z m1135
0 c-28 -12 -37 -12 -30 0 3 6 16 10 28 9 21 0 21 -1 2 -9z m-199 -15 c18 -14
18 -14 -6 -15 -14 0 -36 -3 -49 -7 -23 -6 -23 -6 -5 16 22 25 33 26 60 6z
m-813 -2 c-7 -2 -19 -2 -25 0 -7 3 -2 5 12 5 14 0 19 -2 13 -5z m669 -47 c40
-8 52 -8 101 0 28 5 43 2 57 -11 17 -16 19 -15 32 12 12 25 19 28 58 26 24 -1
47 -8 51 -14 5 -9 16 -8 43 5 27 13 51 16 94 11 31 -3 96 -5 143 -5 66 1 88
-2 98 -14 8 -9 19 -16 26 -16 6 0 20 -8 29 -19 22 -24 61 -32 106 -21 l35 8
-30 3 c-16 1 -38 3 -47 2 -28 0 -21 22 17 56 58 51 129 38 141 -26 8 -48 20
-63 49 -63 12 0 29 -8 36 -17 12 -15 12 -16 -6 -8 -11 4 -31 8 -45 9 -17 1
-31 12 -46 40 -25 45 -40 56 -74 56 -23 -1 -24 -2 -7 -14 9 -7 17 -25 17 -40
0 -14 5 -26 10 -26 6 0 9 -15 9 -32 -1 -22 -3 -26 -6 -13 -3 11 -10 23 -17 27
-19 13 -74 9 -90 -7 -21 -22 -39 -20 -27 3 8 15 4 22 -21 36 -28 17 -64 20
-165 13 -7 0 -13 -13 -13 -28 0 -34 -14 -39 -80 -27 -30 5 -69 8 -88 6 -30 -4
-33 -2 -27 19 6 27 -2 29 -27 6 -11 -9 -18 -11 -18 -5 0 22 -40 13 -50 -10 -8
-21 -9 -20 -9 8 -1 44 -24 61 -56 44 -38 -20 -33 -53 10 -69 31 -11 35 -16 35
-47 0 -23 11 -51 30 -80 24 -33 27 -44 15 -44 -8 0 -15 4 -15 10 0 16 -46 23
-69 10 -12 -6 -21 -7 -21 -3 0 4 -12 14 -27 20 -22 11 -29 10 -45 -4 -17 -15
-18 -15 -18 0 0 20 -21 22 -39 5 -10 -11 -11 -10 -6 3 7 20 -3 28 -39 31 -14
1 -28 8 -30 15 -6 15 -36 18 -36 4 0 -5 -22 2 -50 15 -67 32 -100 32 -100 -1
0 -14 -4 -25 -10 -25 -5 0 -10 16 -10 35 0 23 5 35 14 35 8 0 16 7 20 15 4 11
22 15 70 15 58 0 67 -3 94 -30 24 -23 31 -26 36 -15 9 26 26 17 43 -22 15 -37
16 -37 26 -15 5 12 16 22 24 22 7 0 13 6 13 14 0 8 4 16 10 18 17 6 -4 53 -25
55 -11 1 -36 3 -55 5 -20 1 -41 10 -48 21 -14 18 -39 18 -87 2 -18 -6 -18 -5
-2 5 9 6 15 15 12 20 -3 4 0 21 6 37 l11 28 14 -26 c8 -17 25 -29 46 -33z
m-922 34 c0 -5 -4 -10 -10 -10 -5 0 -10 5 -10 10 0 6 5 10 10 10 6 0 10 -4 10
-10z m-75 -10 c3 -5 16 -10 28 -10 17 0 19 -2 7 -10 -21 -13 -8 -21 39 -22 23
0 44 -5 47 -10 4 -7 9 -7 13 0 3 5 15 6 26 1 19 -7 19 -8 -2 -8 -13 -1 -23 -7
-23 -13 0 -8 -3 -9 -8 -3 -10 15 -28 16 -57 5 -16 -6 -25 -6 -25 0 0 6 -6 10
-14 10 -8 0 -16 7 -20 15 -4 11 -14 14 -33 10 -16 -3 -22 -2 -15 1 6 3 12 14
12 25 0 20 15 26 25 9z m-580 -40 c3 -6 -1 -7 -9 -4 -18 7 -21 14 -7 14 6 0
13 -4 16 -10z m470 -10 c3 -6 -1 -7 -9 -4 -9 3 -16 2 -16 -4 0 -5 -6 -12 -14
-15 -10 -4 -14 0 -13 14 1 20 41 28 52 9z m2205 -10 c0 -5 -4 -10 -10 -10 -5
0 -10 5 -10 10 0 6 5 10 10 10 6 0 10 -4 10 -10z m-2276 -26 c3 -8 2 -12 -4
-9 -6 3 -10 10 -10 16 0 14 7 11 14 -7z m216 6 c0 -5 7 -10 15 -10 8 0 15 -8
14 -17 0 -11 -3 -13 -6 -5 -2 6 -13 12 -22 12 -10 0 -18 7 -18 15 0 8 4 15 9
15 4 0 8 -4 8 -10z m-309 -20 c10 -6 19 -15 19 -21 0 -5 -13 -3 -30 6 -16 9
-30 18 -30 20 0 8 20 6 41 -5z m1979 -10 c11 -11 20 -25 20 -31 0 -5 4 -8 9
-5 5 4 7 -3 4 -14 -6 -24 -21 -26 -30 -4 -8 23 -52 37 -69 23 -17 -14 -19 3
-4 32 14 25 45 24 70 -1z m-1817 3 c-7 -2 -19 -2 -25 0 -7 3 -2 5 12 5 14 0
19 -2 13 -5z m-41 -45 c-9 -9 -15 -9 -24 0 -9 9 -7 12 12 12 19 0 21 -3 12
-12z m798 -7 c0 -5 25 -11 55 -13 62 -5 65 -7 68 -37 1 -22 12 -28 22 -11 8
13 94 13 134 -1 23 -8 34 -19 38 -39 3 -16 15 -32 29 -39 13 -6 24 -17 24 -26
0 -19 -9 -19 -31 1 -17 15 -18 12 -15 -65 3 -75 -4 -102 -17 -67 -3 8 -22 18
-41 22 -20 3 -36 10 -36 15 0 17 -33 9 -67 -17 -18 -14 -33 -21 -33 -15 0 5 3
11 8 13 4 2 14 17 24 35 14 27 14 32 2 37 -8 3 -22 2 -31 -1 -12 -5 -15 -2
-10 9 3 9 -2 26 -11 39 -8 12 -17 34 -18 47 -2 14 -10 32 -18 41 -15 14 -16
12 -16 -17 0 -18 7 -46 15 -62 8 -16 12 -31 7 -33 -4 -3 -18 17 -31 44 -14 27
-30 49 -36 49 -7 0 -24 -13 -38 -30 -28 -31 -42 -37 -52 -21 -3 5 5 13 17 17
26 8 59 45 51 58 -3 4 -9 2 -14 -5 -11 -18 -11 -2 0 38 7 22 6 33 -2 37 -7 2
-4 5 6 5 9 1 17 -3 17 -8z m801 -20 c20 -20 27 -35 22 -47 -6 -16 -7 -15 -14
3 -7 20 -45 33 -95 33 -26 0 -30 10 -12 28 22 22 68 14 99 -17z m424 3 c11 -3
29 -18 40 -34 15 -23 28 -30 59 -32 22 -2 41 -8 43 -13 6 -19 -91 -4 -105 16
-7 11 -23 19 -36 19 -13 0 -37 5 -55 11 -65 23 -17 52 54 33z m-187 -52 c21
-27 14 -44 -9 -21 -16 16 -29 20 -55 16 -36 -6 -45 6 -16 22 21 12 63 4 80
-17z m-2202 -92 c5 -66 10 -90 20 -90 8 0 14 -4 14 -10 0 -5 -7 -10 -15 -10
-9 0 -18 -12 -21 -30 -4 -16 -10 -27 -15 -24 -5 3 -9 1 -9 -5 0 -6 -13 -9 -30
-7 -18 2 -36 -3 -49 -15 -19 -18 -19 -17 -23 22 -3 32 1 44 16 55 27 18 50 18
43 0 -4 -10 -1 -13 9 -9 7 3 14 18 14 33 0 16 3 35 6 44 4 10 1 16 -8 16 -17
0 -41 67 -27 76 15 9 29 -6 30 -34 l1 -27 8 25 c4 14 8 40 9 58 2 65 20 20 27
-68z m244 75 c0 -19 -9 -19 -34 0 -19 14 -19 15 7 15 17 0 27 -5 27 -15z m277
-11 c-3 -3 -12 -4 -19 -1 -8 3 -5 6 6 6 11 1 17 -2 13 -5z m1540 -19 c34 -22
23 -30 -23 -15 -20 7 -55 10 -80 6 -33 -4 -44 -2 -44 8 0 7 3 16 8 20 12 13
111 -1 139 -19z m-1757 -1 c0 -11 -5 -14 -16 -10 -9 3 -20 6 -25 6 -5 0 -9 5
-9 10 0 6 11 10 25 10 16 0 25 -6 25 -16z m26 -51 c-8 -8 -36 5 -36 17 0 7 6
7 21 0 11 -7 18 -14 15 -17z m862 15 c5 -7 12 -22 14 -33 2 -15 10 -19 31 -17
44 5 59 -14 51 -64 l-6 -43 48 -3 49 -3 3 -39 c2 -21 -1 -43 -7 -49 -8 -8 -11
-5 -11 10 0 22 -16 40 -40 42 -8 0 -39 4 -69 7 -39 4 -56 2 -62 -8 -6 -9 -9
-8 -9 8 0 26 18 44 46 44 13 0 26 5 30 11 10 17 -22 42 -56 42 -29 0 -41 19
-20 32 20 12 -3 26 -38 23 -42 -3 -52 14 -20 36 27 19 52 20 66 4z m-1038 -38
c0 -5 -4 -10 -10 -10 -5 0 -10 5 -10 10 0 6 5 10 10 10 6 0 10 -4 10 -10z
m910 -6 l35 -6 0 -59 c0 -32 -2 -59 -5 -59 -3 0 -14 13 -23 30 -16 26 -67 51
-111 54 -24 2 -13 24 16 33 42 14 46 14 88 7z m600 -10 c33 -13 40 -21 39 -43
-1 -17 -3 -20 -6 -8 -5 19 -33 24 -33 5 0 -7 -5 -5 -11 5 -12 20 -84 24 -92 5
-3 -7 -6 -3 -6 9 -2 42 44 53 109 27z m-1590 -3 c0 -11 -26 -22 -34 -14 -12
12 -5 23 14 23 11 0 20 -4 20 -9z m889 -67 c6 -15 9 -29 6 -32 -3 -3 -5 -1 -5
4 0 6 -17 11 -37 12 -26 2 -33 -1 -24 -7 17 -11 8 -27 -19 -34 -23 -6 -25 4
-8 50 10 28 17 33 43 33 25 0 35 -6 44 -26z m1698 2 c4 -8 17 -15 27 -17 30
-6 30 -26 -1 -32 -18 -4 -32 -1 -39 9 -6 8 -28 14 -48 14 -20 0 -36 5 -36 11
0 6 -7 8 -16 5 -14 -5 -15 -4 -4 9 16 20 106 21 117 1z m-2830 -2 c11 -3 23
-14 26 -25 5 -17 3 -18 -23 -4 -49 25 -50 42 -3 29z m293 -8 c0 -9 -30 -14
-35 -6 -4 6 3 10 14 10 12 0 21 -2 21 -4z m100 -6 c0 -5 -4 -10 -9 -10 -6 0
-13 5 -16 10 -3 6 1 10 9 10 9 0 16 -4 16 -10z m1598 -10 c3 -8 1 -12 -3 -8
-4 4 -18 3 -31 -2 -23 -9 -24 -8 -14 11 13 23 41 22 48 -1z m403 -17 c12 -15
12 -16 -4 -10 -10 4 -39 7 -63 7 -28 0 -43 4 -39 10 11 17 91 12 106 -7z
m-1169 -10 c10 -9 18 -22 18 -28 0 -28 41 -63 80 -70 30 -5 43 -13 52 -33 8
-15 27 -31 44 -37 48 -16 82 -43 86 -67 3 -20 8 -23 41 -21 44 3 50 -16 10
-34 -55 -26 -100 -11 -89 30 6 25 -5 30 -30 14 -7 -4 -14 2 -18 17 -6 25 -81
76 -110 76 -9 0 -16 5 -16 10 0 21 -38 51 -70 57 -18 2 -43 9 -56 13 -12 5
-24 5 -26 1 -4 -11 -68 -22 -68 -11 0 5 7 16 16 24 14 15 13 16 -10 16 -16 0
-26 -6 -26 -15 0 -8 -4 -15 -10 -15 -17 0 -11 16 15 44 15 16 35 26 52 26 15
0 35 5 43 10 23 15 51 12 72 -7z m1043 -3 c3 -5 -1 -10 -10 -10 -9 0 -13 5
-10 10 3 6 8 10 10 10 2 0 7 -4 10 -10z m-484 -23 c7 -12 6 -23 -5 -38 l-14
-21 -7 21 c-6 20 -23 25 -87 24 -17 0 -24 17 -12 29 3 3 30 5 60 4 41 -1 58
-6 65 -19z m788 -31 c10 -12 7 -15 -21 -14 -41 1 -54 8 -37 19 21 13 45 11 58
-5z m-2312 -2 c-3 -3 -12 -4 -19 -1 -8 3 -5 6 6 6 11 1 17 -2 13 -5z m1700
-25 c4 -14 10 -18 22 -13 34 14 74 16 99 4 15 -7 37 -17 50 -23 14 -7 22 -19
22 -35 l0 -24 -17 21 c-14 16 -34 22 -94 27 l-77 7 -12 -37 c-12 -36 -30 -49
-30 -21 0 21 -78 21 -86 0 -5 -11 -9 -11 -18 -2 -16 14 -7 24 45 51 21 11 47
17 62 14 15 -3 24 -1 21 3 -3 5 -24 12 -46 15 -37 6 -39 8 -23 21 29 21 76 17
82 -8z m-972 1 c4 -6 14 -10 23 -9 41 4 52 -1 52 -25 0 -26 -15 -43 -24 -27
-3 4 -33 11 -65 15 -62 7 -77 16 -67 41 6 17 71 21 81 5z m1459 -6 c27 -10 18
-21 -14 -16 -16 2 -30 8 -30 13 0 10 21 12 44 3z m-2344 -14 c0 -5 -7 -10 -16
-10 -8 0 -12 5 -9 10 3 6 10 10 16 10 5 0 9 -4 9 -10z m122 -2 c-9 -9 -15 -9
-24 0 -9 9 -7 12 12 12 19 0 21 -3 12 -12z m-42 -18 c0 -5 -5 -10 -11 -10 -5
0 -7 5 -4 10 3 6 8 10 11 10 2 0 4 -4 4 -10z m723 -52 c2 -7 1 -21 -2 -31 -6
-17 -8 -17 -20 -3 -14 16 -9 46 8 46 5 0 11 -6 14 -12z m-873 -8 c-8 -5 -19
-10 -25 -10 -5 0 -3 5 5 10 8 5 20 10 25 10 6 0 3 -5 -5 -10z m100 0 c0 -5 -7
-10 -15 -10 -8 0 -15 5 -15 10 0 6 7 10 15 10 8 0 15 -4 15 -10z m1942 -17
c15 -15 28 -34 28 -44 0 -16 -3 -15 -37 2 -39 20 -123 26 -123 9 0 -5 -4 -10
-10 -10 -14 0 -13 13 3 33 6 10 32 21 57 26 25 5 47 9 49 10 3 1 18 -11 33
-26z m-1961 -44 c7 -13 4 -15 -19 -11 -17 4 -21 7 -11 10 11 2 15 11 13 25 -2
12 -1 15 2 7 4 -8 10 -22 15 -31z m1600 -9 c14 -28 23 -35 50 -37 39 -4 48
-11 29 -23 -18 -12 -110 -13 -110 -2 0 4 -17 16 -37 27 -21 11 -44 26 -52 34
-22 21 14 43 64 39 35 -3 42 -8 56 -38z m-801 -65 c0 -8 -9 -15 -20 -15 -20 0
-26 11 -13 23 12 13 33 7 33 -8z m60 -55 c12 -8 12 -10 -3 -16 -16 -6 -15 -8
4 -35 21 -30 13 -37 -24 -17 -12 6 -43 10 -71 9 -44 -1 -47 0 -36 14 17 20 79
54 100 54 8 1 22 -3 30 -9z m234 -12 c-1 -10 2 -16 6 -13 4 3 10 -2 14 -10 4
-12 -6 -15 -59 -15 -36 0 -65 3 -65 7 0 4 10 17 22 30 27 29 84 29 82 1z
m-394 -48 c-20 -13 -43 -13 -35 0 3 6 16 10 28 10 18 0 19 -2 7 -10z m1013
-75 c-6 -27 -67 -80 -83 -70 -17 10 -11 25 10 25 10 0 32 16 47 35 15 19 29
35 29 35 1 0 -1 -11 -3 -25z m-729 7 c3 -5 -10 -16 -29 -25 -39 -19 -56 -6
-23 17 25 18 44 20 52 8z m-324 -36 c0 -2 -7 -7 -16 -10 -8 -3 -12 -2 -9 4 6
10 25 14 25 6z m36 -65 c-3 -5 -15 -11 -26 -14 -17 -4 -19 -3 -9 9 12 15 44
20 35 5z"/>
<path d="M1770 2226 c0 -3 9 -10 20 -16 11 -6 20 -8 20 -6 0 3 -9 10 -20 16
-11 6 -20 8 -20 6z"/>
<path d="M1910 2089 c0 -5 5 -7 10 -4 6 3 10 8 10 11 0 2 -4 4 -10 4 -5 0 -10
-5 -10 -11z"/>
<path d="M1655 1780 c3 -5 8 -10 11 -10 2 0 4 5 4 10 0 6 -5 10 -11 10 -5 0
-7 -4 -4 -10z"/>
<path d="M1926 1311 c-4 -7 -5 -15 -2 -18 9 -9 19 4 14 18 -4 11 -6 11 -12 0z"/>
<path d="M2150 1100 c8 -5 24 -10 34 -10 26 0 18 6 -19 14 -22 5 -26 4 -15 -4z"/>
<path d="M2220 1100 c0 -5 5 -10 10 -10 6 0 10 5 10 10 0 6 -4 10 -10 10 -5 0
-10 -4 -10 -10z"/>
<path d="M2318 1053 c6 -2 18 -2 25 0 6 3 1 5 -13 5 -14 0 -19 -2 -12 -5z"/>
<path d="M1975 1040 c-3 -5 -1 -10 4 -10 6 0 11 5 11 10 0 6 -2 10 -4 10 -3 0
-8 -4 -11 -10z"/>
<path d="M1963 983 c-24 -9 11 -29 55 -31 36 -2 42 1 42 18 0 15 -7 20 -29 20
-16 0 -32 -6 -34 -12 -4 -10 -6 -10 -6 0 -1 13 -7 14 -28 5z"/>
<path d="M1614 880 c-6 -6 -9 -24 -6 -40 4 -25 9 -30 33 -30 19 0 32 -6 37
-17 5 -13 19 -18 53 -19 l46 0 -8 30 c-12 41 -11 49 2 40 7 -4 10 -1 7 7 -2 8
-20 15 -39 17 -19 2 -38 7 -44 11 -17 12 -69 13 -81 1z"/>
<path d="M1830 375 c0 -8 4 -15 10 -15 5 0 7 7 4 15 -4 8 -8 15 -10 15 -2 0
-4 -7 -4 -15z"/>
<path d="M1045 260 c-3 -5 -2 -10 4 -10 5 0 13 5 16 10 3 6 2 10 -4 10 -5 0
-13 -4 -16 -10z"/>
<path d="M2830 2669 c0 -5 5 -7 10 -4 6 3 10 8 10 11 0 2 -4 4 -10 4 -5 0 -10
-5 -10 -11z"/>
<path d="M1745 2600 c3 -5 8 -10 11 -10 2 0 4 5 4 10 0 6 -5 10 -11 10 -5 0
-7 -4 -4 -10z"/>
<path d="M1520 2410 c0 -5 5 -10 10 -10 6 0 10 5 10 10 0 6 -4 10 -10 10 -5 0
-10 -4 -10 -10z"/>
<path d="M791 2371 c-7 -5 -9 -11 -4 -14 4 -3 17 1 28 9 21 16 0 20 -24 5z"/>
<path d="M173 2073 c-18 -7 -16 -23 2 -23 8 0 15 7 15 15 0 8 -1 15 -2 14 -2
0 -9 -3 -15 -6z"/>
<path d="M3100 1346 c0 -8 5 -18 10 -21 6 -3 10 1 10 9 0 8 -4 18 -10 21 -5 3
-10 -1 -10 -9z"/>
<path d="M2943 1142 c-13 -2 -23 -8 -23 -13 0 -9 37 -3 49 7 8 7 -4 10 -26 6z"/>
</g>
</svg>
